# xmcd
#
# Track frame offsets: 
#        150
#        14380
#        29068
#        42452
#        55588
#        68405
#        80856
#        95615
#        109539
#        123005
#        137097
#        149512
#        163241
#        177968
#
# Disc length: 2562 seconds
#
# Revision: 0
# Processed by: cddbd v1.5.2PL0 Copyright (c) Steve Scherf et al.
# Submitted via: ExactAudioCopy v0.99pb5
#
DISCID=c20a000e
DTITLE=Nat King Cole  - Love Is The Thing (1957) [VINYL] (DCC)  FLAC
DYEAR=1900
DGENRE=
TTITLE0=When I Fall In Love
TTITLE1=Stardust
TTITLE2=Stay as Sweet As You Are
TTITLE3=Where Can I Go Without You
TTITLE4=Maybe Its Because I Love You So Much-cr
TTITLE5=Love Letters-cr
TTITLE6=Ain't Misbehaven
TTITLE7=I Thought About Marie
TTITLE8=At Last
TTITLE9=It's All In The Game
TTITLE10=When Sunny Gets Blue
TTITLE11=Love is the Thing
TTITLE12=Someone To Tell It To
TTITLE13=If Love Ain't There
EXTD=
EXTT0=
EXTT1=
EXTT2=
EXTT3=
EXTT4=
EXTT5=
EXTT6=
EXTT7=
EXTT8=
EXTT9=
EXTT10=
EXTT11=
EXTT12=
EXTT13=
PLAYORDER=
